<svg width="79" height="26" viewBox="0 0 79 26" fill="none" xmlns="http://www.w3.org/2000/svg">
<g clip-path="url(#clip0_17_3451)">
<path d="M57.8162 20.0942C56.5562 19.0292 55.8337 17.4725 55.8337 15.8233V13.5C55.8337 10.5675 53.6553 8.14 50.8337 7.73333V6.83333C50.8337 6.3725 50.4603 6 50.0003 6C49.5403 6 49.167 6.3725 49.167 6.83333V7.73333C46.3445 8.14 44.167 10.5675 44.167 13.5V15.8233C44.167 17.4725 43.4445 19.0292 42.177 20.1008C41.8528 20.3783 41.667 20.7817 41.667 21.2083C41.667 22.0125 42.3212 22.6667 43.1253 22.6667H56.8753C57.6795 22.6667 58.3337 22.0125 58.3337 21.2083C58.3337 20.7817 58.1478 20.3783 57.8162 20.0942Z" fill="#925FA4"/>
<path d="M50.0001 26C51.5093 26 52.7718 24.9242 53.0618 23.5H46.9385C47.2285 24.9242 48.491 26 50.0001 26Z" fill="#925FA4"/>
</g>
<rect x="52" width="27" height="15" rx="7.5" fill="url(#paint0_linear_17_3451)"/>
<path d="M59.77 11C59.7033 11 59.6467 10.9767 59.6 10.93C59.5533 10.8833 59.53 10.8267 59.53 10.76V5.58L58.01 6.75C57.97 6.78333 57.9233 6.8 57.87 6.8C57.79 6.8 57.7233 6.76333 57.67 6.69L57.25 6.15C57.2167 6.09667 57.2 6.04667 57.2 6C57.2 5.92 57.2367 5.85333 57.31 5.8L59.55 4.07C59.61 4.02333 59.6933 4 59.8 4H60.68C60.7533 4 60.81 4.02333 60.85 4.07C60.8967 4.11 60.92 4.16667 60.92 4.24V10.76C60.92 10.8267 60.8967 10.8833 60.85 10.93C60.81 10.9767 60.7533 11 60.68 11H59.77ZM62.3189 11C62.2522 11 62.1956 10.9767 62.1489 10.93C62.1022 10.8833 62.0789 10.8267 62.0789 10.76V10.25C62.0789 10.07 62.1622 9.91333 62.3289 9.78L63.9089 8.21C64.5956 7.67 65.0722 7.25 65.3389 6.95C65.6122 6.64333 65.7489 6.34333 65.7489 6.05C65.7489 5.73667 65.6622 5.49 65.4889 5.31C65.3222 5.13 65.0689 5.04 64.7289 5.04C64.3956 5.04 64.1322 5.14 63.9389 5.34C63.7456 5.53333 63.6256 5.78667 63.5789 6.1C63.5589 6.18 63.5222 6.24 63.4689 6.28C63.4156 6.31333 63.3556 6.33 63.2889 6.33H62.3989C62.3389 6.33 62.2889 6.31 62.2489 6.27C62.2089 6.23 62.1889 6.18333 62.1889 6.13C62.2022 5.73667 62.3089 5.37 62.5089 5.03C62.7089 4.68333 62.9989 4.40667 63.3789 4.2C63.7589 3.98667 64.2056 3.88 64.7189 3.88C65.2522 3.88 65.7022 3.97333 66.0689 4.16C66.4422 4.34 66.7222 4.59 66.9089 4.91C67.0956 5.23 67.1889 5.59333 67.1889 6C67.1889 6.44667 67.0622 6.85 66.8089 7.21C66.5622 7.57 66.1822 7.95667 65.6689 8.37L64.2489 9.81H67.0989C67.1722 9.81 67.2289 9.83333 67.2689 9.88C67.3156 9.92 67.3389 9.97667 67.3389 10.05V10.76C67.3389 10.8267 67.3156 10.8833 67.2689 10.93C67.2289 10.9767 67.1722 11 67.0989 11H62.3189ZM70.9303 11.1C70.3436 11.1 69.8436 11.0067 69.4303 10.82C69.0236 10.6333 68.717 10.4 68.5103 10.12C68.3103 9.83333 68.2036 9.54 68.1903 9.24C68.1903 9.18 68.2103 9.13333 68.2503 9.1C68.297 9.06 68.3503 9.04 68.4103 9.04H69.3103C69.457 9.04 69.5536 9.10667 69.6003 9.24C69.747 9.72 70.1936 9.96 70.9403 9.96C71.347 9.96 71.667 9.86667 71.9003 9.68C72.1336 9.48667 72.2503 9.21333 72.2503 8.86C72.2503 8.19333 71.8336 7.86 71.0003 7.86H69.9703C69.897 7.86 69.837 7.83667 69.7903 7.79C69.7436 7.74333 69.7203 7.68667 69.7203 7.62V7.2C69.7203 7.09333 69.767 6.99333 69.8603 6.9L71.6503 5.15H68.7903C68.7236 5.15 68.667 5.12667 68.6203 5.08C68.5736 5.03333 68.5503 4.97667 68.5503 4.91V4.25C68.5503 4.17667 68.5703 4.11667 68.6103 4.07C68.657 4.02333 68.717 4 68.7903 4H73.0803C73.1536 4 73.2136 4.02333 73.2603 4.07C73.307 4.11667 73.3303 4.17667 73.3303 4.25V4.85C73.3303 4.95 73.287 5.04333 73.2003 5.13L71.4703 6.91L71.5903 6.92C72.2303 6.97333 72.737 7.16667 73.1103 7.5C73.4903 7.83333 73.6803 8.31 73.6803 8.93C73.6803 9.37 73.5603 9.75333 73.3203 10.08C73.087 10.4067 72.7603 10.66 72.3403 10.84C71.927 11.0133 71.457 11.1 70.9303 11.1Z" fill="white"/>
<g clip-path="url(#clip1_17_3451)">
<path d="M19.3613 24.2168L14.6012 19.2662C15.8251 17.8113 16.4957 15.9807 16.4957 14.075C16.4957 9.62251 12.8732 6 8.4207 6C3.96821 6 0.345703 9.62251 0.345703 14.075C0.345703 18.5275 3.96821 22.15 8.4207 22.15C10.0922 22.15 11.6851 21.6458 13.047 20.6888L17.8432 25.677C18.0436 25.8852 18.3133 26 18.6022 26C18.8757 26 19.1352 25.8957 19.3321 25.7061C19.7506 25.3034 19.764 24.6357 19.3613 24.2168ZM8.4207 8.10652C11.7118 8.10652 14.3892 10.7839 14.3892 14.075C14.3892 17.3661 11.7118 20.0435 8.4207 20.0435C5.12961 20.0435 2.45222 17.3661 2.45222 14.075C2.45222 10.7839 5.12961 8.10652 8.4207 8.10652Z" fill="#925FA4"/>
</g>
<defs>
<linearGradient id="paint0_linear_17_3451" x1="52" y1="7.5" x2="79" y2="7.5" gradientUnits="userSpaceOnUse">
<stop stop-color="#EE0979"/>
<stop offset="1" stop-color="#FF6A00"/>
</linearGradient>
<clipPath id="clip0_17_3451">
<rect width="20" height="20" fill="white" transform="translate(40 6)"/>
</clipPath>
<clipPath id="clip1_17_3451">
<rect width="20" height="20" fill="white" transform="translate(0 6)"/>
</clipPath>
</defs>
</svg>
